<svg width="350" height="350" viewBox="0 0 350 350" fill="none" xmlns="http://www.w3.org/2000/svg">
    <path fill="#04072A" d="M0 0h350v350H0z"/>
    <g clip-path="url(#tm1pgas4fa)" fill="#fff">
        <path d="M109.132 161.426a24.53 24.53 0 0 1-17.684-6.863 24.254 24.254 0 0 1-7.385-17.396 24.161 24.161 0 0 1 7.385-17.396 24.423 24.423 0 0 1 17.684-6.862 24.081 24.081 0 0 1 12.01 3.373 23.931 23.931 0 0 1 8.687 8.904c.334.545-.661-.145 0 0l10.016 11.267a51.524 51.524 0 0 0 35.12 13.955c17.738 0 35.774-10.363 45.208-25.258-.334.569.57-.218 0 0a23.947 23.947 0 0 1 8.687-8.898 24.122 24.122 0 0 1 12.004-3.374 24.507 24.507 0 0 1 17.69 6.863 24.238 24.238 0 0 1 7.384 17.39 24.155 24.155 0 0 1-7.384 17.396 24.397 24.397 0 0 1-17.684 6.863 51.68 51.68 0 0 0-35.356 14.216l-4.85 4.949a70.185 70.185 0 0 0-4.838 6.202 23.474 23.474 0 0 1-8.676 9.11 23.666 23.666 0 0 1-18.447 2.499 23.648 23.648 0 0 1-14.545-11.609c-.218-.381.406.2 0 0a54.347 54.347 0 0 0-19.297-18.317 54.71 54.71 0 0 0-25.729-7.014zm131.811 27.154a24.485 24.485 0 0 0-13.562 4.095 24.294 24.294 0 0 0-8.985 10.891 24.154 24.154 0 0 0 5.293 26.445 24.525 24.525 0 0 0 26.59 5.264 24.372 24.372 0 0 0 10.949-8.94 24.184 24.184 0 0 0-3.037-30.637 24.496 24.496 0 0 0-17.248-7.118zm-107.41 24.271c0-4.797-1.43-9.491-4.11-13.483a24.372 24.372 0 0 0-10.949-8.94 24.519 24.519 0 0 0-26.596 5.263 24.15 24.15 0 0 0-5.293 26.446 24.294 24.294 0 0 0 8.997 10.897 24.501 24.501 0 0 0 30.81-3.029 24.23 24.23 0 0 0 7.154-17.154h-.013zm41.504 62.098c4.826 0 9.543-1.423 13.556-4.088a24.302 24.302 0 0 0 8.991-10.891 24.15 24.15 0 0 0-5.293-26.452 24.52 24.52 0 0 0-26.596-5.263 24.359 24.359 0 0 0-10.949 8.94 24.176 24.176 0 0 0-4.11 13.483 24.239 24.239 0 0 0 7.154 17.154 24.487 24.487 0 0 0 17.247 7.117z"/>
        <path d="M199.437 99.327c0-4.803-1.43-9.492-4.11-13.483a24.373 24.373 0 0 0-10.955-8.94 24.525 24.525 0 0 0-26.59 5.263 24.226 24.226 0 0 0-5.293 26.446 24.299 24.299 0 0 0 8.991 10.89 24.497 24.497 0 0 0 30.798-3.028 24.237 24.237 0 0 0 7.159-17.148z"/>
    </g>
    <defs>
        <clipPath id="tm1pgas4fa">
            <path fill="#fff" transform="rotate(90 101.5 170.5)" d="M0 0h212v194H0z"/>
        </clipPath>
    </defs>
</svg>
